<svg width="2467" height="2183" viewBox="0 0 2467 2183" fill="none" xmlns="http://www.w3.org/2000/svg">
<path d="M494.566 51.6879C495.202 32.8906 519.839 26.3452 529.721 42.3479L740.423 383.553C746.275 393.03 758.987 395.463 767.926 388.817L1089.74 149.539C1104.83 138.317 1125.31 153.498 1118.96 171.201L983.564 548.673C979.803 559.157 985.827 570.613 996.596 573.457L1384.32 675.872C1402.5 680.675 1403.4 706.151 1385.6 712.224L1006.06 841.718C995.522 845.315 990.321 857.167 994.811 867.36L1156.48 1234.35C1164.06 1251.56 1144.71 1268.15 1128.86 1258.02L790.98 1042.02C781.595 1036.02 769.086 1039.34 763.917 1049.21L577.794 1404.42C569.064 1421.08 544.028 1416.29 542.068 1397.58L500.275 998.747C499.114 987.67 488.717 979.962 477.78 982.071L84.0193 1058.02C65.5516 1061.59 53.6881 1039.02 67.0907 1025.83L352.855 744.485C360.793 736.67 360.336 723.736 351.868 716.5L46.9793 456.002C32.6798 443.785 42.923 420.442 61.5959 422.693L459.731 470.698C470.79 472.031 480.618 463.609 480.995 452.477L494.566 51.6879Z" fill="#F66C57"/>
<path d="M1650.34 591.162C1650.97 572.364 1675.61 565.819 1685.49 581.822L1859.08 862.925C1864.93 872.402 1877.64 874.835 1886.58 868.189L2151.71 671.059C2166.8 659.837 2187.28 675.017 2180.93 692.721L2069.38 1003.7C2065.62 1014.19 2071.65 1025.64 2082.42 1028.49L2401.84 1112.86C2420.03 1117.67 2420.92 1143.14 2403.12 1149.21L2090.44 1255.9C2079.9 1259.5 2074.7 1271.35 2079.19 1281.54L2212.38 1583.88C2219.96 1601.1 2200.61 1617.68 2184.76 1607.55L1906.4 1429.6C1897.01 1423.6 1884.5 1426.93 1879.33 1436.79L1726 1729.44C1717.27 1746.1 1692.23 1741.3 1690.27 1722.6L1655.84 1394.02C1654.68 1382.94 1644.28 1375.23 1633.34 1377.34L1308.94 1439.91C1290.47 1443.48 1278.61 1420.91 1292.01 1407.72L1527.44 1175.93C1535.38 1168.12 1534.92 1155.18 1526.45 1147.95L1275.27 933.334C1260.97 921.117 1271.21 897.774 1289.89 900.026L1617.89 939.574C1628.95 940.907 1638.78 932.486 1639.16 921.354L1650.34 591.162Z" fill="#F66C57"/>
<path d="M857.372 1388.37C858.008 1369.58 882.645 1363.03 892.527 1379.03L999.98 1553.04C1005.83 1562.52 1018.54 1564.95 1027.48 1558.3L1191.6 1436.28C1206.69 1425.05 1227.17 1440.24 1220.82 1457.94L1151.77 1650.44C1148.01 1660.93 1154.04 1672.38 1164.8 1675.23L1362.53 1727.45C1380.72 1732.26 1381.62 1757.73 1363.82 1763.81L1170.26 1829.85C1159.72 1833.44 1154.52 1845.29 1159.01 1855.49L1241.46 2042.64C1249.04 2059.85 1229.68 2076.44 1213.84 2066.31L1041.53 1956.16C1032.14 1950.16 1019.63 1953.48 1014.46 1963.35L919.543 2144.5C910.814 2161.16 885.777 2156.37 883.817 2137.66L862.504 1934.26C861.343 1923.19 850.946 1915.48 840.009 1917.59L639.2 1956.32C620.732 1959.88 608.869 1937.32 622.271 1924.13L768.005 1780.65C775.942 1772.83 775.486 1759.9 767.017 1752.66L611.531 1619.81C597.232 1607.6 607.475 1584.25 626.148 1586.51L829.188 1610.99C840.246 1612.32 850.074 1603.9 850.451 1592.77L857.372 1388.37Z" fill="#F66C57"/>
</svg>
